<?xml version="1.0" encoding="utf-8"?>
<!-- Generator: Adobe Illustrator 17.0.0, SVG Export Plug-In . SVG Version: 6.00 Build 0)  -->
<!DOCTYPE svg PUBLIC "-//W3C//DTD SVG 1.1//EN" "http://www.w3.org/Graphics/SVG/1.1/DTD/svg11.dtd">
<svg version="1.1" id="Layer_1" xmlns="http://www.w3.org/2000/svg" xmlns:xlink="http://www.w3.org/1999/xlink" x="0px" y="0px"
	 width="62px" height="62px" viewBox="0 0 62 62" enable-background="new 0 0 62 62" xml:space="preserve">
<g>
	<path fill-rule="evenodd" clip-rule="evenodd" fill="#0E0E10" d="M31,1c16.569,0,30,13.431,30,30S47.569,61,31,61S1,47.569,1,31
		S14.431,1,31,1z"/>
	<path fill="#C6C6D1" d="M31,12.838c-10.015,0-18.162,8.148-18.162,18.163c0,10.015,8.147,18.161,18.162,18.161
		c10.015,0,18.162-8.147,18.162-18.161C49.162,20.985,41.015,12.838,31,12.838z M17.875,27.284l6.872,2l2.118,6.521l-4.026,5.28
		l-6.11-2.189l-0.86,0.427c-1.152-2.086-1.882-4.433-2.082-6.929L17.875,27.284z M34.402,36.318l4.128,5.278l-3.722,5.907h-7.65
		l-3.628-5.856l4.062-5.329H34.402z M45.42,39.026l-6.188,2.023l-4.099-5.24l2.113-6.505l6.751-2.302l4.235,5.135
		c-0.171,2.626-0.931,5.094-2.151,7.272L45.42,39.026z M44.052,19.707l-0.267,6.427l-6.806,2.321l-5.536-4.023v-7.062l6.12-2.343
		C40.08,16.065,42.296,17.68,44.052,19.707z M24.433,15.028l6.121,2.341v7.064l-5.516,4.009l-6.888-2.006L17.78,19.9
		C19.561,17.783,21.839,16.098,24.433,15.028z"/>
</g>
</svg>
