<?xml version="1.0" encoding="utf-8"?>
<!-- Generator: Adobe Illustrator 17.0.0, SVG Export Plug-In . SVG Version: 6.00 Build 0)  -->
<!DOCTYPE svg PUBLIC "-//W3C//DTD SVG 1.1//EN" "http://www.w3.org/Graphics/SVG/1.1/DTD/svg11.dtd">
<svg version="1.1" id="Layer_1" xmlns="http://www.w3.org/2000/svg" xmlns:xlink="http://www.w3.org/1999/xlink" x="0px" y="0px"
	 width="56px" height="56px" viewBox="0 0 56 56" enable-background="new 0 0 56 56" xml:space="preserve">
<g>
	<path fill="#FFFFFF" d="M28,39c-1.104,0-2-0.896-2-2V17c0-1.104,0.896-2,2-2s2,0.896,2,2v20C30,38.104,29.104,39,28,39z"/>
</g>
<g>
	<path fill="#FFFFFF" d="M28,43c-0.559,0-1.092-0.234-1.471-0.645L16.183,31.132c-0.749-0.812-0.697-2.077,0.115-2.826
		c0.812-0.749,2.077-0.698,2.826,0.115L28,38.049l8.876-9.629c0.75-0.812,2.015-0.864,2.826-0.115
		c0.812,0.749,0.864,2.014,0.115,2.826L29.471,42.355C29.092,42.766,28.559,43,28,43z"/>
</g>
<g>
	<path fill="#FFFFFF" d="M28,4c13.234,0,24,10.766,24,24S41.234,52,28,52S4,41.234,4,28S14.766,4,28,4 M28,1C13.088,1,1,13.088,1,28
		s12.088,27,27,27c14.912,0,27-12.088,27-27S42.912,1,28,1L28,1z"/>
</g>
</svg>
