<?xml version="1.0" encoding="utf-8"?>
<!-- Generator: Adobe Illustrator 17.0.0, SVG Export Plug-In . SVG Version: 6.00 Build 0)  -->
<!DOCTYPE svg PUBLIC "-//W3C//DTD SVG 1.1//EN" "http://www.w3.org/Graphics/SVG/1.1/DTD/svg11.dtd">
<svg version="1.1" id="Layer_1" xmlns="http://www.w3.org/2000/svg" xmlns:xlink="http://www.w3.org/1999/xlink" x="0px" y="0px"
	 width="62px" height="62px" viewBox="0 0 62 62" enable-background="new 0 0 62 62" xml:space="preserve">
<g>
	<path fill-rule="evenodd" clip-rule="evenodd" fill="#0E0E10" d="M31,1c16.569,0,30,13.431,30,30S47.569,61,31,61S1,47.569,1,31
		S14.431,1,31,1z"/>
	<path fill="#C6C6D1" d="M32.479,35.88v-0.041c1.798-0.931,3.173-2.469,4.212-4.297c8.533-1.96,8.532-11.929,8.532-12.031
		l-0.007-0.581h-5.306c0.084-1.267,0.078-2.059,0.078-2.059h-7.51h-1.439H22.01c0,0-0.005,0.792,0.079,2.059h-5.305l-0.006,0.581
		c-0.001,0.102-0.002,10.071,8.531,12.031c1.055,1.855,2.455,3.412,4.293,4.338v3.938v0.09c-4.309,0.501-7.591,3.075-7.591,6.177
		h7.591h2.878h7.778c0-2.151-1.579-4.049-3.984-5.178h-0.012v-0.006c-1.11-0.519-2.395-0.873-3.782-1.014v-0.069V35.88z
		 M39.818,20.102h4.216c-0.114,1.942-0.942,8.089-6.621,10.013C38.942,26.741,39.565,22.803,39.818,20.102z M17.966,20.102h4.217
		c0.251,2.701,0.874,6.639,2.404,10.013C18.907,28.191,18.08,22.044,17.966,20.102z"/>
</g>
</svg>
