<?xml version="1.0" encoding="utf-8"?>
<!-- Generator: Adobe Illustrator 17.0.0, SVG Export Plug-In . SVG Version: 6.00 Build 0)  -->
<!DOCTYPE svg PUBLIC "-//W3C//DTD SVG 1.1//EN" "http://www.w3.org/Graphics/SVG/1.1/DTD/svg11.dtd">
<svg version="1.1" id="Layer_1" xmlns="http://www.w3.org/2000/svg" xmlns:xlink="http://www.w3.org/1999/xlink" x="0px" y="0px"
	 width="62px" height="62px" viewBox="0 0 62 62" enable-background="new 0 0 62 62" xml:space="preserve">
<g>
	<path fill-rule="evenodd" clip-rule="evenodd" fill="#0E0E10" d="M31,1c16.568,0,30,13.431,30,30S47.569,61,31,61S1,47.569,1,31
		S14.432,1,31,1z"/>
	<path fill-rule="evenodd" clip-rule="evenodd" fill="#C6C6D1" d="M61,29.995H42.272C41.763,24.213,36.914,19.677,31,19.677
		c-5.914,0-10.763,4.536-11.272,10.318H1v2.009h18.728C20.237,37.787,25.086,42.323,31,42.323c5.914,0,10.763-4.536,11.272-10.318
		H61V29.995z M31,21.677c4.801,0,8.763,3.648,9.266,8.318H21.734C22.237,25.326,26.199,21.677,31,21.677z M31,40.323
		c-4.801,0-8.763-3.648-9.266-8.318h18.533C39.763,36.674,35.801,40.323,31,40.323z"/>
</g>
</svg>
