<?xml version="1.0" encoding="utf-8"?>
<!-- Generator: Adobe Illustrator 17.0.0, SVG Export Plug-In . SVG Version: 6.00 Build 0)  -->
<!DOCTYPE svg PUBLIC "-//W3C//DTD SVG 1.1//EN" "http://www.w3.org/Graphics/SVG/1.1/DTD/svg11.dtd">
<svg version="1.1" id="Layer_1" xmlns="http://www.w3.org/2000/svg" xmlns:xlink="http://www.w3.org/1999/xlink" x="0px" y="0px"
	 width="62px" height="62px" viewBox="0 0 62 62" enable-background="new 0 0 62 62" xml:space="preserve">
<g>
	<path fill-rule="evenodd" clip-rule="evenodd" fill="#0E0E10" d="M31,1c16.569,0,30,13.431,30,30S47.569,61,31,61S1,47.569,1,31
		S14.432,1,31,1z"/>
	<path fill="#C6C6D1" d="M35.713,16.844c-1.068,1.353-2.721,2.222-4.578,2.222c-1.857,0-3.511-0.869-4.58-2.222L16.17,19.618
		l1.525,6.644l3.4-0.974v19.649V45.5h19v-0.564V25.287l3.939,0.974l1.921-6.644L35.713,16.844z M35.643,23.323
		c0.761,0,1.379,0.617,1.379,1.379c0,0.761-0.617,1.379-1.379,1.379c-0.761,0-1.379-0.617-1.379-1.379
		C34.265,23.94,34.882,23.323,35.643,23.323z M37.095,28.5h-4v-2h4V28.5z"/>
</g>
</svg>
