<?xml version="1.0" encoding="utf-8"?>
<!-- Generator: Adobe Illustrator 17.0.0, SVG Export Plug-In . SVG Version: 6.00 Build 0)  -->
<!DOCTYPE svg PUBLIC "-//W3C//DTD SVG 1.1//EN" "http://www.w3.org/Graphics/SVG/1.1/DTD/svg11.dtd">
<svg version="1.1" id="Layer_1" xmlns="http://www.w3.org/2000/svg" xmlns:xlink="http://www.w3.org/1999/xlink" x="0px" y="0px"
	 width="62px" height="62px" viewBox="0 0 62 62" enable-background="new 0 0 62 62" xml:space="preserve">
<g>
	<path fill-rule="evenodd" clip-rule="evenodd" fill="#0E0E10" d="M31,1c16.569,0,30,13.431,30,30S47.569,61,31,61S1,47.569,1,31
		S14.431,1,31,1z"/>
	<g>
		<path fill="#C6C6D1" d="M29.928,31.481l3.06-4.701c2.377,1.348,5.055,2.464,8.021,2.464c0.395,0,0.796-0.02,1.202-0.062
			c1.078-0.111,1.86-1.063,1.748-2.127c-0.112-1.064-1.078-1.833-2.154-1.726c-3.561,0.363-6.961-1.875-9.966-3.851
			c-1.581-1.039-3.074-2.021-4.501-2.556c-4.886-1.83-10.236,3.668-10.83,4.302c-0.736,0.785-0.689,2.011,0.106,2.737
			c0.795,0.727,2.036,0.68,2.772-0.105c1.255-1.337,4.651-4.026,6.56-3.312c0.212,0.08,0.441,0.185,0.678,0.303l-7.694,12.609H13.5
			c-1.083,0-1.962,0.867-1.962,1.937c0,1.07,0.878,1.937,1.962,1.937h6.539c0.688,0,1.325-0.356,1.68-0.938l3.747-4.035l6.081,3.658
			v7.514c0,1.07,0.878,1.937,1.961,1.937c1.084,0,1.962-0.867,1.962-1.937v-8.394c0-0.56-0.245-1.092-0.672-1.46L29.928,31.481z"/>
		<path fill="#C6C6D1" d="M41.812,38.169c-2.564,0-4.642,2.053-4.642,4.585c0,2.532,2.078,4.585,4.642,4.585
			c2.564,0,4.642-2.053,4.642-4.585C46.454,40.221,44.376,38.169,41.812,38.169z"/>
		<path fill="#C6C6D1" d="M34.26,20.475c2.221,0,4.021-1.778,4.021-3.971c0-2.193-1.8-3.971-4.021-3.971
			c-2.221,0-4.021,1.778-4.021,3.971C30.239,18.697,32.039,20.475,34.26,20.475z"/>
	</g>
</g>
</svg>
