<?xml version="1.0" encoding="utf-8"?>
<!-- Generator: Adobe Illustrator 17.0.0, SVG Export Plug-In . SVG Version: 6.00 Build 0)  -->
<!DOCTYPE svg PUBLIC "-//W3C//DTD SVG 1.1//EN" "http://www.w3.org/Graphics/SVG/1.1/DTD/svg11.dtd">
<svg version="1.1" id="Layer_1" xmlns="http://www.w3.org/2000/svg" xmlns:xlink="http://www.w3.org/1999/xlink" x="0px" y="0px"
	 width="56px" height="56px" viewBox="0 0 56 56" enable-background="new 0 0 56 56" xml:space="preserve">
<g>
	<path fill="#323232" d="M28,39c-1.104,0-2-0.896-2-2V17c0-1.104,0.896-2,2-2s2,0.896,2,2v20C30,38.104,29.104,39,28,39z"/>
</g>
<g>
	<path fill="#323232" d="M28,43c-0.559,0-1.092-0.234-1.471-0.645L16.183,31.132c-0.749-0.812-0.697-2.077,0.115-2.826
		c0.812-0.749,2.077-0.698,2.826,0.115L28,38.049l8.876-9.629c0.75-0.812,2.015-0.864,2.826-0.115
		c0.812,0.749,0.864,2.014,0.115,2.826L29.471,42.355C29.092,42.766,28.559,43,28,43z"/>
</g>
<g>
	<path fill="#323232" d="M28,4c13.234,0,24,10.766,24,24S41.234,52,28,52S4,41.234,4,28S14.766,4,28,4 M28,1C13.088,1,1,13.088,1,28
		s12.088,27,27,27c14.912,0,27-12.088,27-27S42.912,1,28,1L28,1z"/>
</g>
<path fill="#D6D5E5" d="M-28.438,35.797c0,0-1.396,0.89-2.32,3.121c-0.371,0.203-0.72,0.466-1.031,0.746
	c0.335-1.878-0.085-2.827-0.464-3.275c0.061-0.159,0.126-0.307,0.198-0.443c-0.143,0.072-0.275,0.153-0.405,0.234
	c-0.144-0.119-0.249-0.164-0.249-0.164c0.032,0.093,0.057,0.183,0.083,0.274c-0.48,0.324-0.863,0.696-1.174,1.092
	c0.526-2.789,2.235-4.19,2.235-4.19c-1.884,0.918-2.767,2.741-3.185,4.36c-0.376-0.485-0.834-0.951-1.407-1.378
	c0,0,0.227,0.495,0.441,1.266c-0.22-0.137-0.441-0.219-0.655-0.215c0.117,0.141,0.238,0.316,0.356,0.512
	c-0.215,0.118-0.466,0.282-0.721,0.508c-0.135-0.054-0.272-0.105-0.421-0.146c0.182-0.344,0.375-0.647,0.56-0.866
	c-0.151-0.002-0.305,0.037-0.46,0.107c0.468-1.59,1.214-3.378,2.395-4.815c0,0-2.875,1.819-3.979,6.598
	c-0.086,0.164-0.166,0.329-0.236,0.496c-0.02-0.264-0.055-0.538-0.104-0.817c0.074-0.043,0.148-0.081,0.216-0.115
	c-0.078-0.038-0.165-0.059-0.256-0.075c-0.296-1.451-1.045-3.034-2.73-4.281c0,0,0.772,1.634,0.772,3.655
	c-0.194,0.102-0.39,0.222-0.583,0.361c-0.044,0-0.083,0.007-0.125,0.009c-0.093-0.095-0.191-0.19-0.292-0.283
	c0.211-0.426,0.442-0.804,0.66-1.068c-0.386-0.007-0.799,0.251-1.18,0.653c-0.122-0.087-0.242-0.174-0.374-0.253
	c0.536-1.248,1.148-2.074,1.148-2.074c-0.174,0.093-0.34,0.199-0.501,0.309c0.021-0.028,0.042-0.061,0.063-0.085
	c-0.643,0.41-1.158,0.919-1.575,1.474c-0.083-0.028-0.163-0.058-0.252-0.079c0,0,0.077,0.068,0.185,0.164
	c-0.154,0.212-0.288,0.433-0.412,0.655c-0.23,0.375-0.419,0.756-0.584,1.13c-0.042-0.114-0.088-0.228-0.134-0.34
	c0.07-0.482,0.112-0.947,0.122-1.392c0.042-0.057,0.084-0.113,0.124-0.161c-0.039,0-0.08,0.01-0.122,0.014
	c0.037-2.883-1.022-4.924-1.022-4.924c0.335,1.722,0.227,3.37-0.062,4.806c-0.4-0.505-0.883-0.967-1.476-1.345
	c0.428,0.514,0.878,1.443,1.13,2.497c-0.249-0.268-0.503-0.5-0.755-0.698c0.087-0.121,0.176-0.244,0.279-0.358
	c-0.183,0.049-0.355,0.112-0.515,0.182c-0.889-0.636-1.652-0.85-1.652-0.85c0.397,0.398,0.735,0.804,1.027,1.2
	c-0.834,0.595-1.264,1.486-1.409,2.365c-0.167,0.152-0.32,0.309-0.46,0.467c0.073-0.34,0.127-0.659,0.164-0.957
	c0.275-0.915,0.762-1.9,1.2-2.423c-0.387-0.008-0.797,0.25-1.177,0.649c-0.231-1.791-1.255-2.195-1.255-2.195
	c0.21,0.578,0.292,1.146,0.289,1.683c-0.585,0.278-1.027,0.724-1.353,1.234c-0.528-2.861,1.681-4.746,1.681-4.746
	c-1.455,0.803-2.246,1.814-2.648,2.827c-0.164-0.168-0.352-0.324-0.571-0.461c0.249,0.272,0.36,0.647,0.372,1.07
	c-0.099,0.394-0.146,0.781-0.16,1.152c-0.128,0.46-0.322,0.926-0.55,1.354c-0.032-0.103-0.063-0.21-0.092-0.319
	c-0.03-0.176-0.067-0.357-0.114-0.538c-0.017-0.091-0.037-0.177-0.051-0.272c0.212-0.317,0.456-0.637,0.773-0.954
	c0,0.005-0.366,0.109-0.828,0.4c-0.038-0.619,0-1.295,0.155-2.027c0,0-0.42,0.404-0.812,1.099c-0.154-0.233-0.335-0.46-0.539-0.678
	c0.466-1.287,1.12-2.617,2.04-3.734c0.003,0.002-1.44,0.925-2.675,3.163c-0.243-0.186-0.512-0.359-0.812-0.515
	c0.182,0.349,0.331,0.774,0.448,1.23c-0.175,0.375-0.343,0.779-0.496,1.216c-0.036-0.074-0.081-0.148-0.119-0.223
	c0.061-0.056,0.125-0.106,0.196-0.142c-0.097-0.017-0.192-0.023-0.286-0.023c-0.118-0.208-0.248-0.416-0.391-0.623
	c0.429-0.445,0.734-0.693,0.734-0.693c-0.349,0.085-0.67,0.207-0.982,0.346c-0.365-0.453-0.805-0.889-1.343-1.29
	c0,0,0.32,0.683,0.55,1.702c-0.353,0.222-0.679,0.471-0.981,0.736c-0.223,0.136-0.438,0.35-0.634,0.617
	c-0.013,0.015-0.027,0.027-0.039,0.042c-0.234-0.213-0.499-0.407-0.783-0.582c0.083-0.346,0.223-0.63,0.442-0.8
	c-0.092,0-0.179,0.014-0.265,0.03c0.189-0.321,0.398-0.631,0.636-0.915c0,0-0.521,0.334-1.135,1.095
	c-0.122,0.069-0.238,0.151-0.347,0.248c-0.18-0.074-0.365-0.142-0.561-0.189c0,0,0.158,0.132,0.386,0.356
	c-0.251,0.265-0.462,0.594-0.638,0.946c-1.682-6.224-5.453-8.621-5.453-8.621c1.602,1.949,2.636,4.351,3.304,6.527
	c-0.118-0.072-0.24-0.144-0.369-0.212c0.349,0.665,0.578,1.608,0.691,2.511c-1.131-1.407-2.585-1.814-2.585-1.814
	c1.271,1.279,1.888,2.6,2.193,3.594c-0.632-0.713-1.551-1.482-2.537-1.67c0.505,0.373,1.211,1.241,1.717,2.14h-1.528v36.791h0.096
	v0.127h36.632V40.837h-0.094v-0.129h-1.302c0.117-0.207,0.243-0.413,0.377-0.612c-0.055,0.196-0.103,0.398-0.148,0.61h0.812
	c0.106-0.568,0.276-1.276,0.527-2.018c0.052-0.043,0.101-0.087,0.147-0.121c-0.037,0.007-0.075,0.017-0.114,0.026
	C-29.599,37.638-29.126,36.633-28.438,35.797 M-64.124,40.708h-0.012c0-0.002,0-0.002,0-0.002h0.012
	C-64.124,40.706-64.124,40.706-64.124,40.708 M-37.37,38.534c0.003-0.007,0.006-0.016,0.009-0.021
	c0.053,0.073,0.1,0.154,0.148,0.232c-0.014,0.018-0.028,0.032-0.042,0.051c-0.064,0.027-0.128,0.057-0.193,0.088
	C-37.424,38.769-37.398,38.655-37.37,38.534 M-41.087,39.06c0.01,0.012,0.02,0.024,0.028,0.034c0,0.003-0.001,0.007-0.001,0.011
	c-0.01-0.014-0.02-0.025-0.031-0.041C-41.089,39.063-41.088,39.061-41.087,39.06 M-42.343,38.918
	c0.012,0.02,0.024,0.041,0.035,0.061c-0.029,0.031-0.061,0.056-0.09,0.086C-42.381,39.015-42.362,38.967-42.343,38.918
	 M-43.063,37.889c0.06,0.072,0.122,0.151,0.183,0.23c-0.188,0.258-0.362,0.545-0.514,0.843
	C-43.301,38.588-43.189,38.227-43.063,37.889 M-47.431,38.158c0.103,0.168,0.201,0.334,0.289,0.497
	c-0.162,0.039-0.328,0.092-0.499,0.166C-47.596,38.599-47.52,38.378-47.431,38.158 M-46.909,39.112
	c0.014,0.026,0.025,0.051,0.038,0.076c-0.244,0.522-0.411,1.055-0.467,1.519h-0.142c-0.126-0.287-0.205-0.602-0.23-0.936
	C-47.446,39.524-47.173,39.304-46.909,39.112 M-50.597,38.08c-0.043,0.148-0.078,0.304-0.105,0.465
	C-50.676,38.384-50.641,38.228-50.597,38.08 M-55.924,38.595c0.022,0.54-0.002,1.018-0.074,1.347
	c-0.034-0.045-0.075-0.096-0.113-0.145c-0.008-0.058-0.011-0.115-0.021-0.175C-56.077,39.311-56.008,38.963-55.924,38.595
	 M-58.214,37.616c0.005,0.046,0.01,0.095,0.014,0.142c-0.068,0.06-0.136,0.12-0.202,0.187c-0.015-0.005-0.03-0.01-0.045-0.015
	C-58.371,37.824-58.292,37.718-58.214,37.616 M-58.57,38.103c0.004,0.004,0.006,0.007,0.009,0.01
	c-0.031,0.034-0.059,0.073-0.089,0.109C-58.623,38.182-58.596,38.143-58.57,38.103 M-57.771,50.078
	c1.264-0.001,2.287,1.025,2.29,2.293c0.003,1.268-1.019,2.297-2.283,2.299c-1.261,0.002-2.287-1.023-2.289-2.291
	C-60.054,51.11-59.032,50.082-57.771,50.078 M-60.856,39.117c-0.037-0.32-0.053-0.636-0.042-0.939
	c0.12,0.157,0.24,0.324,0.357,0.504C-60.653,38.828-60.755,38.972-60.856,39.117 M-60.443,61.242l23.291-0.036
	C-37.131,74.091-60.422,74.015-60.443,61.242 M-39.371,54.632c-1.263,0.002-2.287-1.024-2.29-2.29
	c-0.001-1.269,1.02-2.299,2.282-2.301c1.263-0.002,2.287,1.024,2.29,2.292C-37.088,53.6-38.108,54.632-39.371,54.632
	 M-37.017,40.309c0.051-0.205,0.124-0.44,0.225-0.696c0.136,0.361,0.221,0.697,0.225,0.932
	C-36.696,40.469-36.849,40.389-37.017,40.309 M-35.938,38.711c0.032-0.018,0.065-0.037,0.098-0.051
	c-0.082-0.039-0.17-0.064-0.263-0.078c-0.036-0.027-0.075-0.049-0.115-0.073c0.107-0.164,0.229-0.329,0.363-0.495
	c0.153,0.28,0.298,0.588,0.428,0.91c0.012,0.115,0.022,0.233,0.029,0.353C-35.546,39.08-35.723,38.887-35.938,38.711
	 M-32.737,40.708h-0.012c-0.001-0.004-0.001-0.01-0.003-0.012l0.02,0.005C-32.734,40.703-32.736,40.706-32.737,40.708
	 M-32.805,39.055c0.045-0.635,0.152-1.329,0.321-1.96C-32.437,37.83-32.596,38.506-32.805,39.055"/>
</svg>
