<?xml version="1.0" encoding="utf-8"?>
<!-- Generator: Adobe Illustrator 17.0.0, SVG Export Plug-In . SVG Version: 6.00 Build 0)  -->
<!DOCTYPE svg PUBLIC "-//W3C//DTD SVG 1.1//EN" "http://www.w3.org/Graphics/SVG/1.1/DTD/svg11.dtd">
<svg version="1.1" id="Layer_1" xmlns="http://www.w3.org/2000/svg" xmlns:xlink="http://www.w3.org/1999/xlink" x="0px" y="0px"
	 width="41px" height="50px" viewBox="7.5 2 41 50" enable-background="new 7.5 2 41 50" xml:space="preserve">
<path fill="#D6D5E5" d="M47.656,9.163c0,0-1.396,0.89-2.32,3.121c-0.371,0.203-0.72,0.466-1.031,0.746
	c0.335-1.878-0.085-2.827-0.464-3.275c0.061-0.159,0.126-0.307,0.198-0.443c-0.143,0.072-0.275,0.153-0.405,0.234
	c-0.144-0.119-0.249-0.164-0.249-0.164c0.032,0.093,0.057,0.183,0.083,0.274c-0.48,0.324-0.863,0.696-1.174,1.092
	c0.526-2.789,2.235-4.19,2.235-4.19c-1.884,0.918-2.767,2.741-3.185,4.36c-0.376-0.485-0.834-0.951-1.407-1.378
	c0,0,0.227,0.495,0.441,1.266c-0.22-0.137-0.441-0.219-0.655-0.215c0.117,0.141,0.238,0.316,0.356,0.512
	c-0.215,0.118-0.466,0.282-0.721,0.508c-0.135-0.054-0.272-0.105-0.421-0.146c0.182-0.344,0.375-0.647,0.56-0.866
	c-0.151-0.002-0.305,0.037-0.46,0.107c0.468-1.59,1.214-3.378,2.395-4.815c0,0-2.875,1.819-3.979,6.598
	c-0.086,0.164-0.166,0.329-0.236,0.496c-0.02-0.264-0.055-0.538-0.104-0.817c0.074-0.043,0.148-0.081,0.216-0.115
	c-0.078-0.038-0.165-0.059-0.256-0.075c-0.296-1.451-1.045-3.034-2.73-4.281c0,0,0.772,1.634,0.772,3.655
	c-0.194,0.102-0.39,0.222-0.583,0.361c-0.044,0-0.083,0.007-0.125,0.009c-0.093-0.095-0.191-0.19-0.292-0.283
	c0.211-0.426,0.442-0.804,0.66-1.068c-0.386-0.007-0.799,0.251-1.18,0.653c-0.122-0.087-0.242-0.174-0.374-0.253
	c0.536-1.248,1.148-2.074,1.148-2.074c-0.174,0.093-0.34,0.199-0.501,0.309c0.021-0.028,0.042-0.061,0.063-0.085
	c-0.643,0.41-1.158,0.919-1.575,1.474c-0.083-0.028-0.163-0.058-0.252-0.079c0,0,0.077,0.068,0.185,0.164
	c-0.154,0.212-0.288,0.433-0.412,0.655c-0.23,0.375-0.419,0.756-0.584,1.13c-0.042-0.114-0.088-0.228-0.134-0.34
	c0.07-0.482,0.112-0.947,0.122-1.392c0.042-0.057,0.084-0.113,0.124-0.161c-0.039,0-0.08,0.01-0.122,0.014
	c0.037-2.883-1.022-4.924-1.022-4.924c0.335,1.722,0.227,3.37-0.062,4.806c-0.4-0.505-0.883-0.967-1.476-1.345
	c0.428,0.514,0.878,1.443,1.13,2.497c-0.249-0.268-0.503-0.5-0.755-0.698c0.087-0.121,0.176-0.244,0.279-0.358
	c-0.183,0.049-0.355,0.112-0.515,0.182c-0.889-0.636-1.652-0.85-1.652-0.85c0.397,0.398,0.735,0.804,1.027,1.2
	c-0.834,0.595-1.264,1.486-1.409,2.365c-0.167,0.152-0.32,0.309-0.46,0.467c0.073-0.34,0.127-0.659,0.164-0.957
	c0.275-0.915,0.762-1.9,1.2-2.423c-0.387-0.008-0.797,0.25-1.177,0.649C26.324,9.206,25.3,8.802,25.3,8.802
	c0.21,0.578,0.292,1.146,0.289,1.683c-0.585,0.278-1.027,0.724-1.353,1.234c-0.528-2.861,1.681-4.746,1.681-4.746
	c-1.455,0.803-2.246,1.814-2.648,2.827c-0.164-0.168-0.352-0.324-0.571-0.461c0.249,0.272,0.36,0.647,0.372,1.07
	c-0.099,0.394-0.146,0.781-0.16,1.152c-0.128,0.46-0.322,0.926-0.55,1.354c-0.032-0.103-0.063-0.21-0.092-0.319
	c-0.03-0.176-0.067-0.357-0.114-0.538c-0.017-0.091-0.037-0.177-0.051-0.272c0.212-0.317,0.456-0.637,0.773-0.954
	c0,0.005-0.366,0.109-0.828,0.4c-0.038-0.619,0-1.295,0.155-2.027c0,0-0.42,0.404-0.812,1.099c-0.154-0.233-0.335-0.46-0.539-0.678
	c0.466-1.287,1.12-2.617,2.04-3.734c0.003,0.002-1.44,0.925-2.675,3.163c-0.243-0.186-0.512-0.359-0.812-0.515
	c0.182,0.349,0.331,0.774,0.448,1.23c-0.175,0.375-0.343,0.779-0.496,1.216c-0.036-0.074-0.081-0.148-0.119-0.223
	c0.061-0.056,0.125-0.106,0.196-0.142c-0.097-0.017-0.192-0.023-0.286-0.023c-0.118-0.208-0.248-0.416-0.391-0.623
	c0.429-0.445,0.734-0.693,0.734-0.693c-0.349,0.085-0.67,0.207-0.982,0.346c-0.365-0.453-0.805-0.889-1.343-1.29
	c0,0,0.32,0.683,0.55,1.702c-0.353,0.222-0.679,0.471-0.981,0.736c-0.223,0.136-0.438,0.35-0.634,0.617
	c-0.013,0.015-0.027,0.027-0.039,0.042c-0.234-0.213-0.499-0.407-0.783-0.582c0.083-0.346,0.223-0.63,0.442-0.8
	c-0.092,0-0.179,0.014-0.265,0.03c0.189-0.321,0.398-0.631,0.636-0.915c0,0-0.521,0.334-1.135,1.095
	c-0.122,0.069-0.238,0.151-0.347,0.248c-0.18-0.074-0.365-0.142-0.561-0.189c0,0,0.158,0.132,0.386,0.356
	c-0.251,0.265-0.462,0.594-0.638,0.946C12.115,5.4,8.344,3.003,8.344,3.003c1.602,1.949,2.636,4.351,3.304,6.527
	c-0.118-0.072-0.24-0.144-0.369-0.212c0.349,0.665,0.578,1.608,0.691,2.511c-1.131-1.407-2.585-1.814-2.585-1.814
	c1.271,1.279,1.888,2.6,2.193,3.594c-0.632-0.713-1.551-1.482-2.537-1.67c0.505,0.373,1.211,1.241,1.717,2.14H9.23V50.87h0.096
	v0.127h36.632V14.203h-0.094v-0.129h-1.302c0.117-0.207,0.243-0.413,0.377-0.612c-0.055,0.196-0.103,0.398-0.148,0.61h0.812
	c0.106-0.568,0.276-1.276,0.527-2.018c0.052-0.043,0.101-0.087,0.147-0.121c-0.037,0.007-0.075,0.017-0.114,0.026
	C46.495,11.004,46.968,9.999,47.656,9.163 M11.97,14.074h-0.012c0-0.002,0-0.002,0-0.002h0.012
	C11.97,14.072,11.97,14.072,11.97,14.074 M38.724,11.9c0.003-0.007,0.006-0.016,0.009-0.021c0.053,0.073,0.1,0.154,0.148,0.232
	c-0.014,0.018-0.028,0.032-0.042,0.051c-0.064,0.027-0.128,0.057-0.193,0.088C38.67,12.135,38.696,12.021,38.724,11.9
	 M35.007,12.426c0.01,0.012,0.02,0.024,0.028,0.034c0,0.003-0.001,0.007-0.001,0.011c-0.01-0.014-0.02-0.025-0.031-0.041
	C35.005,12.429,35.006,12.427,35.007,12.426 M33.751,12.284c0.012,0.02,0.024,0.041,0.035,0.061
	c-0.029,0.031-0.061,0.056-0.09,0.086C33.713,12.381,33.732,12.333,33.751,12.284 M33.031,11.255c0.06,0.072,0.122,0.151,0.183,0.23
	c-0.188,0.258-0.362,0.545-0.514,0.843C32.793,11.954,32.905,11.593,33.031,11.255 M28.663,11.524
	c0.103,0.168,0.201,0.334,0.289,0.497c-0.162,0.039-0.328,0.092-0.499,0.166C28.498,11.965,28.574,11.744,28.663,11.524
	 M29.185,12.478c0.014,0.026,0.025,0.051,0.038,0.076c-0.244,0.522-0.411,1.055-0.467,1.519h-0.142
	c-0.126-0.287-0.205-0.602-0.23-0.936C28.648,12.89,28.921,12.67,29.185,12.478 M25.497,11.446
	c-0.043,0.148-0.078,0.304-0.105,0.465C25.418,11.75,25.453,11.594,25.497,11.446 M20.17,11.961c0.022,0.54-0.002,1.018-0.074,1.347
	c-0.034-0.045-0.075-0.096-0.113-0.145c-0.008-0.058-0.011-0.115-0.021-0.175C20.017,12.677,20.086,12.329,20.17,11.961
	 M17.88,10.982c0.005,0.046,0.01,0.095,0.014,0.142c-0.068,0.06-0.136,0.12-0.202,0.187c-0.015-0.005-0.03-0.01-0.045-0.015
	C17.723,11.19,17.802,11.084,17.88,10.982 M17.524,11.469c0.004,0.004,0.006,0.007,0.009,0.01c-0.031,0.034-0.059,0.073-0.089,0.109
	C17.471,11.548,17.498,11.509,17.524,11.469 M18.323,23.444c1.264-0.001,2.287,1.025,2.29,2.293
	c0.003,1.268-1.019,2.297-2.283,2.299c-1.261,0.002-2.287-1.023-2.289-2.291C16.04,24.476,17.062,23.448,18.323,23.444
	 M15.238,12.483c-0.037-0.32-0.053-0.636-0.042-0.939c0.12,0.157,0.24,0.324,0.357,0.504C15.441,12.194,15.339,12.338,15.238,12.483
	 M15.651,34.608l23.291-0.036C38.963,47.457,15.672,47.381,15.651,34.608 M36.723,27.998c-1.263,0.002-2.287-1.024-2.29-2.29
	c-0.001-1.269,1.02-2.299,2.282-2.301c1.263-0.002,2.287,1.024,2.29,2.292C39.006,26.966,37.986,27.998,36.723,27.998
	 M39.077,13.675c0.051-0.205,0.124-0.44,0.225-0.696c0.136,0.361,0.221,0.697,0.225,0.932
	C39.398,13.835,39.245,13.755,39.077,13.675 M40.156,12.077c0.032-0.018,0.065-0.037,0.098-0.051
	c-0.082-0.039-0.17-0.064-0.263-0.078c-0.036-0.027-0.075-0.049-0.115-0.073c0.107-0.164,0.229-0.329,0.363-0.495
	c0.153,0.28,0.298,0.588,0.428,0.91c0.012,0.115,0.022,0.233,0.029,0.353C40.548,12.446,40.371,12.253,40.156,12.077 M43.357,14.074
	h-0.012c-0.001-0.004-0.001-0.01-0.003-0.012l0.02,0.005C43.36,14.069,43.358,14.072,43.357,14.074 M43.289,12.421
	c0.045-0.635,0.152-1.329,0.321-1.96C43.657,11.196,43.498,11.872,43.289,12.421"/>
</svg>
