<?xml version="1.0" encoding="utf-8"?>
<!-- Generator: Adobe Illustrator 17.0.0, SVG Export Plug-In . SVG Version: 6.00 Build 0)  -->
<!DOCTYPE svg PUBLIC "-//W3C//DTD SVG 1.1//EN" "http://www.w3.org/Graphics/SVG/1.1/DTD/svg11.dtd">
<svg version="1.1" id="Layer_1" xmlns="http://www.w3.org/2000/svg" xmlns:xlink="http://www.w3.org/1999/xlink" x="0px" y="0px"
	 width="43px" height="29.875px" viewBox="0 0 43 29.875" enable-background="new 0 0 43 29.875" xml:space="preserve">
<g>
	<path fill="#FFFFFF" d="M97.595-0.156c-1.104,0-2-0.896-2-2v-20c0-1.104,0.896-2,2-2s2,0.896,2,2v20
		C99.595-1.052,98.7-0.156,97.595-0.156z"/>
</g>
<g>
	<path fill="#FFFFFF" d="M97.595,3.844c-0.559,0-1.092-0.234-1.471-0.645L85.778-8.024c-0.749-0.812-0.697-2.077,0.115-2.826
		c0.812-0.749,2.077-0.698,2.826,0.115l8.876,9.629l8.876-9.629c0.75-0.812,2.015-0.864,2.826-0.115
		c0.812,0.749,0.864,2.014,0.115,2.826L99.066,3.199C98.687,3.61,98.154,3.844,97.595,3.844z"/>
</g>
<g>
	<path fill="#FFFFFF" d="M97.595-35.156c13.234,0,24,10.766,24,24s-10.766,24-24,24s-24-10.766-24-24S84.362-35.156,97.595-35.156
		 M97.595-38.156c-14.912,0-27,12.088-27,27s12.088,27,27,27c14.912,0,27-12.088,27-27S112.507-38.156,97.595-38.156L97.595-38.156z
		"/>
</g>
<path fill="#161B24" d="M12.709,1.16c-3.54,2.4-6.283,5.143-8.23,8.23c-1.947,3.088-2.92,6.224-2.92,9.41
	c0,2.911,0.826,5.271,2.478,7.08c1.652,1.809,3.814,2.714,6.49,2.714c2.399,0,4.425-0.796,6.077-2.389
	c1.652-1.593,2.478-3.549,2.478-5.87c0-2.399-0.777-4.326-2.33-5.782c-1.554-1.455-3.628-2.183-6.224-2.183
	c0.354-1.376,0.983-2.704,1.888-3.982c0.904-1.278,2.084-2.448,3.54-3.51L12.709,1.16z M35.01,1.16
	c-3.501,2.4-6.224,5.143-8.171,8.23c-1.947,3.088-2.92,6.224-2.92,9.41c0,2.911,0.826,5.271,2.478,7.08
	c1.652,1.809,3.815,2.714,6.49,2.714c2.399,0,4.425-0.796,6.077-2.389c1.652-1.593,2.478-3.549,2.478-5.87
	c0-2.399-0.767-4.326-2.301-5.782c-1.534-1.455-3.579-2.183-6.136-2.183c0.354-1.416,0.953-2.723,1.799-3.923
	c0.845-1.199,2.015-2.389,3.51-3.569L35.01,1.16z"/>
</svg>
