<?xml version="1.0" encoding="utf-8"?>
<!-- Generator: Adobe Illustrator 17.0.0, SVG Export Plug-In . SVG Version: 6.00 Build 0)  -->
<!DOCTYPE svg PUBLIC "-//W3C//DTD SVG 1.1//EN" "http://www.w3.org/Graphics/SVG/1.1/DTD/svg11.dtd">
<svg version="1.1" id="Layer_1" xmlns="http://www.w3.org/2000/svg" xmlns:xlink="http://www.w3.org/1999/xlink" x="0px" y="0px"
	 width="17.25px" height="14.5px" viewBox="0 0 17.25 14.5" enable-background="new 0 0 17.25 14.5" xml:space="preserve">
<g>
	<path fill="#FFFFFF" d="M121.75,7.344c-1.104,0-2-0.896-2-2v-20c0-1.104,0.896-2,2-2s2,0.896,2,2v20
		C123.75,6.448,122.854,7.344,121.75,7.344z"/>
</g>
<g>
	<path fill="#FFFFFF" d="M121.75,11.344c-0.559,0-1.092-0.234-1.471-0.645L109.933-0.524c-0.749-0.812-0.697-2.077,0.115-2.826
		c0.812-0.749,2.077-0.698,2.826,0.115l8.876,9.629l8.876-9.629c0.75-0.812,2.015-0.864,2.826-0.115
		c0.812,0.749,0.864,2.014,0.115,2.826l-10.347,11.224C122.842,11.11,122.309,11.344,121.75,11.344z"/>
</g>
<g>
	<path fill="#FFFFFF" d="M121.75-27.656c13.234,0,24,10.766,24,24s-10.766,24-24,24s-24-10.766-24-24S108.516-27.656,121.75-27.656
		 M121.75-30.656c-14.912,0-27,12.088-27,27s12.088,27,27,27c14.912,0,27-12.088,27-27S136.662-30.656,121.75-30.656L121.75-30.656z
		"/>
</g>
<polygon fill="#65459B" points="8.625,12.25 1.25,2.25 16.25,2.25 "/>
</svg>
