<?xml version="1.0" encoding="utf-8"?>
<!-- Generator: Adobe Illustrator 17.0.0, SVG Export Plug-In . SVG Version: 6.00 Build 0)  -->
<!DOCTYPE svg PUBLIC "-//W3C//DTD SVG 1.1//EN" "http://www.w3.org/Graphics/SVG/1.1/DTD/svg11.dtd">
<svg version="1.1" id="Layer_1" xmlns="http://www.w3.org/2000/svg" xmlns:xlink="http://www.w3.org/1999/xlink" x="0px" y="0px"
	 width="632px" height="156px" viewBox="0 0 632 156" enable-background="new 0 0 632 156" xml:space="preserve">
<path fill="#FFFFFF" d="M115.206,65.144v-5.751H86.115V38.251h24.017v-5.666H86.115V12.374h29.091V6.623H79.604v58.52H115.206z"/>
<path fill="#FFFFFF" d="M159.382,59.309h-25.708V6.623h-6.512v58.52h32.22V59.309z"/>
<path fill="#FFFFFF" d="M219.191,62.86c7.328-3.833,10.994-13.108,10.994-27.822c0-7.047-0.902-12.741-2.706-17.083
	c-3.101-7.554-9.416-11.332-18.943-11.332h-20.888v58.52h20.888C212.707,65.144,216.259,64.383,219.191,62.86L219.191,62.86z
	 M208.536,59.393h-14.376V12.374h14.376c2.931,0,5.412,0.564,7.442,1.691c5.017,2.763,7.526,9.754,7.526,20.973
	C223.504,51.275,218.515,59.393,208.536,59.393L208.536,59.393z"/>
<path fill="#FFFFFF" d="M249.772,65.144V6.623h-6.512v58.52H249.772z"/>
<path fill="#FFFFFF" d="M266.315,65.144l4.228-15.053h25.032l4.228,15.053h6.427l-16.068-58.52h-14.207l-16.068,58.52H266.315z
	 M285.258,12.205l8.879,32.051h-22.156l8.88-32.051H285.258z"/>
<path fill="#FFFFFF" d="M339.719,42.733l10.571,22.41h7.188L346.231,41.38c7.159-2.311,10.74-7.977,10.74-16.998
	c0-6.089-1.565-10.571-4.693-13.446c-3.129-2.875-7.795-4.313-13.996-4.313h-21.649v58.52h6.512v-22.41H339.719z M323.144,36.983
	V12.374h15.137c8.005,0,12.008,4.102,12.008,12.304c0,8.203-3.975,12.305-11.924,12.305H323.144z"/>
<path fill="#FFFFFF" d="M376.341,65.144V6.623h-6.512v58.52H376.341z"/>
<path fill="#FFFFFF" d="M399.353,17.406c2.283-3.918,6.596-5.877,12.939-5.877c6.343,0,10.669,1.974,12.981,5.92
	c2.311,3.947,3.467,10.233,3.467,18.858s-1.114,14.771-3.34,18.436c-2.228,3.665-6.568,5.497-13.023,5.497
	c-6.456,0-10.811-1.874-13.066-5.624c-2.255-3.749-3.383-9.907-3.383-18.478C395.928,27.568,397.07,21.325,399.353,17.406z
	 M430.389,13.22c-3.412-4.96-9.429-7.442-18.055-7.442c-8.626,0-14.63,2.495-18.013,7.484c-3.383,4.99-5.074,12.63-5.074,22.918
	c0,10.289,1.662,17.83,4.989,22.622c3.326,4.792,9.372,7.188,18.14,7.188c8.766,0,14.812-2.339,18.14-7.019
	c3.326-4.679,4.989-12.233,4.989-22.664C435.505,25.877,433.799,18.181,430.389,13.22z"/>
<path fill="#FFFFFF" d="M498.946,62.86c7.328-3.833,10.994-13.108,10.994-27.822c0-7.047-0.902-12.741-2.706-17.083
	c-3.101-7.554-9.416-11.332-18.943-11.332h-20.888v58.52h20.888C492.463,65.144,496.014,64.383,498.946,62.86L498.946,62.86z
	 M488.291,59.393h-14.376V12.374h14.376c2.931,0,5.412,0.564,7.442,1.691c5.017,2.763,7.526,9.754,7.526,20.973
	C503.259,51.275,498.27,59.393,488.291,59.393L488.291,59.393z"/>
<path fill="#FFFFFF" d="M558.618,65.144v-5.751h-29.091V38.251h24.017v-5.666h-24.017V12.374h29.091V6.623h-35.603v58.52H558.618z"
	/>
<path fill="#FFFFFF" d="M19.638,147.979c2.864-2.245,4.297-6.585,4.297-13.023L23.846,84.9H11.708v49.524
	c0,2.423-0.531,4.075-1.595,4.961c-1.063,0.886-2.777,1.329-5.138,1.329v10.631C11.886,151.345,16.772,150.223,19.638,147.979z"/>
<path fill="#FFFFFF" d="M49.006,84.9H36.781v39.867c0,7.384,1.905,12.802,5.714,16.257c3.81,3.455,9.553,5.183,17.231,5.183
	c7.677,0,13.422-1.728,17.231-5.183c3.81-3.455,5.714-8.873,5.714-16.257V84.9H70.446v40.133c0,7.029-3.574,10.543-10.72,10.543
	c-7.147,0-10.72-3.513-10.72-10.543V84.9z"/>
<path fill="#FFFFFF" d="M102.557,145.144l2.392-10.897h21.085l2.392,10.897h12.226L127.098,84.9h-23.212l-13.555,60.244H102.557z
	 M117.618,95l6.113,28.616h-16.479L113.366,95H117.618z"/>
<path fill="#FFFFFF" d="M161.65,145.144V95.531h0.886l15.061,49.613h20.111V84.9h-12.226v49.612h-0.886L170.066,84.9h-20.642v60.244
	H161.65z"/>
<path fill="#FFFFFF" d="M223.746,145.144v-21.262h21.44V113.25h-21.44V95.531h26.224V84.9h-38.45v60.244H223.746z"/>
<path fill="#FFFFFF" d="M270.813,84.9h-12.226v39.867c0,7.384,1.905,12.802,5.714,16.257c3.809,3.455,9.553,5.183,17.231,5.183
	c7.677,0,13.422-1.728,17.232-5.183c3.81-3.455,5.714-8.873,5.714-16.257V84.9h-12.226v40.133c0,7.029-3.574,10.543-10.72,10.543
	c-7.147,0-10.72-3.513-10.72-10.543V84.9z"/>
<path fill="#FFFFFF" d="M328.713,95.708v49.435h12.226V95.708h15.947V84.9h-44.297v10.808H328.713z"/>
<path fill="#FFFFFF" d="M365.593,145.144h24.009c6.201,0,11.015-1.417,14.441-4.253c3.425-2.835,5.138-7.176,5.138-13.023
	c0-3.779-0.635-6.733-1.905-8.859c-1.271-2.126-3.234-3.75-5.891-4.873c2.421-1.535,4.133-3.292,5.138-5.271
	c1.004-1.978,1.506-4.651,1.506-8.018c0-5.61-1.566-9.671-4.695-12.182c-3.131-2.51-7.827-3.765-14.086-3.765h-23.655V145.144z
	 M396.778,127.248c0,2.835-0.635,4.784-1.905,5.847c-1.271,1.063-3.234,1.595-5.892,1.595h-11.163v-14.707h11.163
	C394.178,119.983,396.778,122.405,396.778,127.248L396.778,127.248z M395.626,102.53c0,4.784-2.303,7.176-6.91,7.176h-10.897V95.354
	h10.808C393.292,95.354,395.626,97.746,395.626,102.53z"/>
<path fill="#FFFFFF" d="M430.363,115.332c0-7.294,0.886-12.594,2.658-15.903c1.772-3.307,5.019-4.961,9.745-4.961
	c4.725,0,7.974,1.654,9.745,4.961c1.772,3.308,2.658,8.609,2.658,15.903c0,7.295-0.872,12.492-2.614,15.592
	c-1.743,3.101-5.005,4.651-9.79,4.651c-4.784,0-8.048-1.55-9.79-4.651C431.233,127.824,430.363,122.627,430.363,115.332z
	 M467.749,115.288c0-10.631-1.876-18.53-5.626-23.699c-3.751-5.167-10.204-7.752-19.358-7.752c-9.156,0-15.608,2.585-19.358,7.752
	c-3.751,5.169-5.626,13.068-5.626,23.699c0,10.631,1.874,18.443,5.626,23.433c3.75,4.992,10.202,7.486,19.358,7.486
	c9.154,0,15.606-2.494,19.358-7.486C465.874,133.73,467.749,125.919,467.749,115.288z"/>
<path fill="#FFFFFF" d="M513.601,134.335h-22.06V84.9h-12.226v60.244h34.286V134.335z"/>
<path fill="#FFFFFF" d="M554.523,145.144v-21.262h21.44V113.25h-21.44V95.531h26.224V84.9h-38.45v60.244H554.523z"/>
<path fill="#FFFFFF" d="M627.814,134.158c-5.493,0.828-10.675,1.24-15.548,1.24c-4.873,0-8.122-1.343-9.745-4.031
	c-1.625-2.687-2.436-7.515-2.436-14.485c0-6.968,0.399-11.901,1.196-14.795c0.797-2.893,2.022-4.858,3.677-5.892
	c1.653-1.033,4.414-1.55,8.284-1.55c3.868,0,8.726,0.443,14.574,1.329l0.354-9.745c-6.675-1.595-12.551-2.392-17.63-2.392
	c-8.801,0-14.839,2.29-18.117,6.866c-3.278,4.578-4.917,12.684-4.917,24.319c0,5.552,0.324,10.159,0.975,13.821
	c0.649,3.663,1.83,6.852,3.544,9.568c1.712,2.717,4.075,4.695,7.088,5.936c3.012,1.24,7.028,1.86,12.049,1.86
	c5.019,0,10.66-0.68,16.921-2.038L627.814,134.158z"/>
</svg>
