<?xml version="1.0" encoding="utf-8"?>
<!-- Generator: Adobe Illustrator 17.0.0, SVG Export Plug-In . SVG Version: 6.00 Build 0)  -->
<!DOCTYPE svg PUBLIC "-//W3C//DTD SVG 1.1//EN" "http://www.w3.org/Graphics/SVG/1.1/DTD/svg11.dtd">
<svg version="1.1" id="Layer_1" xmlns="http://www.w3.org/2000/svg" xmlns:xlink="http://www.w3.org/1999/xlink" x="0px" y="0px"
	 width="192px" height="52px" viewBox="0 0 192 52" enable-background="new 0 0 192 52" xml:space="preserve">
<polygon fill="#65469C" points="191,41 103.738,41 95.905,51 88.071,41 1,41 1,1 191,1 "/>
<g>
	<path fill="#FFFFFF" d="M22.945,15.212c-1.524,0-2.286,0.534-2.286,1.603c0,0.552,0.18,0.944,0.54,1.179s1.155,0.522,2.385,0.864
		c1.229,0.342,2.097,0.75,2.601,1.224c0.504,0.475,0.756,1.222,0.756,2.241c0,1.296-0.369,2.265-1.107,2.907
		c-0.738,0.642-1.743,0.963-3.015,0.963c-1.02,0-2.148-0.12-3.384-0.36l-0.648-0.126l0.198-1.602
		c1.62,0.216,2.856,0.323,3.708,0.323c1.488,0,2.232-0.659,2.232-1.979c0-0.516-0.168-0.897-0.504-1.144
		c-0.336-0.245-1.092-0.516-2.268-0.81c-1.176-0.294-2.052-0.699-2.628-1.215c-0.576-0.516-0.864-1.332-0.864-2.448
		s0.363-1.959,1.089-2.529c0.726-0.569,1.73-0.854,3.015-0.854c0.924,0,2.016,0.107,3.276,0.324l0.63,0.107l-0.162,1.62
		C24.829,15.309,23.641,15.212,22.945,15.212z"/>
	<path fill="#FFFFFF" d="M28.471,14.348l4.248-1.817l0.612,1.691l-4.392,1.404L28.471,14.348z M29.047,16.994h1.962v9h-1.962V16.994
		z"/>
	<path fill="#FFFFFF" d="M41.431,27.218c0,1.969-1.422,2.952-4.266,2.952c-1.368,0-2.382-0.186-3.042-0.558
		c-0.66-0.372-0.99-1.051-0.99-2.034c0-0.444,0.108-0.825,0.324-1.143c0.216-0.318,0.564-0.663,1.044-1.035
		c-0.396-0.264-0.594-0.702-0.594-1.314c0-0.239,0.162-0.63,0.486-1.17l0.162-0.27c-0.864-0.517-1.296-1.416-1.296-2.7
		c0-1.08,0.324-1.872,0.972-2.376s1.524-0.756,2.628-0.756c0.528,0,1.05,0.06,1.566,0.18l0.27,0.054l2.79-0.071v1.584L39.99,18.47
		c0.324,0.421,0.486,0.912,0.486,1.477c0,1.176-0.297,1.989-0.891,2.438c-0.594,0.45-1.521,0.676-2.781,0.676
		c-0.312,0-0.576-0.024-0.792-0.072c-0.168,0.408-0.252,0.723-0.252,0.945c0,0.222,0.111,0.375,0.333,0.459s0.759,0.132,1.611,0.144
		c1.428,0.012,2.406,0.204,2.934,0.576C41.167,25.484,41.431,26.186,41.431,27.218z M35.059,27.398c0,0.42,0.168,0.72,0.504,0.899
		c0.336,0.181,0.912,0.271,1.728,0.271c1.452,0,2.178-0.414,2.178-1.242c0-0.468-0.129-0.765-0.387-0.891
		c-0.258-0.126-0.771-0.195-1.539-0.207l-1.764-0.108c-0.264,0.216-0.45,0.417-0.558,0.603
		C35.112,26.909,35.059,27.134,35.059,27.398z M35.599,21.161c0.264,0.258,0.69,0.387,1.278,0.387s1.011-0.129,1.269-0.387
		c0.258-0.258,0.387-0.663,0.387-1.215s-0.132-0.957-0.396-1.215c-0.264-0.258-0.69-0.388-1.278-0.388
		c-1.104,0-1.656,0.534-1.656,1.603C35.203,20.498,35.334,20.903,35.599,21.161z"/>
	<path fill="#FFFFFF" d="M48.648,16.994h1.944v9h-1.944v-0.558c-0.876,0.504-1.686,0.756-2.43,0.756
		c-1.236,0-2.064-0.333-2.484-0.999c-0.42-0.666-0.63-1.833-0.63-3.501v-4.698h1.962v4.716c0,1.08,0.09,1.807,0.27,2.178
		c0.18,0.372,0.6,0.559,1.26,0.559c0.648,0,1.242-0.12,1.782-0.36l0.27-0.107V16.994z"/>
	<path fill="#FFFFFF" d="M59.557,24.374l0.504-0.054l0.036,1.458c-1.368,0.275-2.581,0.414-3.636,0.414
		c-1.332,0-2.289-0.366-2.871-1.099c-0.582-0.731-0.873-1.901-0.873-3.51c0-3.191,1.302-4.788,3.906-4.788
		c2.52,0,3.78,1.374,3.78,4.122l-0.126,1.404h-5.58c0.012,0.744,0.174,1.29,0.486,1.638c0.312,0.349,0.894,0.522,1.746,0.522
		S58.656,24.446,59.557,24.374z M58.477,20.811c0-0.889-0.141-1.51-0.423-1.863c-0.282-0.354-0.759-0.531-1.431-0.531
		c-0.672,0-1.161,0.187-1.467,0.559c-0.306,0.372-0.465,0.983-0.477,1.836H58.477z"/>
	<path fill="#FFFFFF" d="M64.434,25.994h-1.962v-9h1.944v0.558c0.876-0.504,1.704-0.756,2.484-0.756c1.2,0,2.019,0.34,2.457,1.018
		c0.438,0.678,0.657,1.797,0.657,3.356v4.824H68.07v-4.77c0-0.973-0.105-1.662-0.315-2.07c-0.21-0.408-0.639-0.612-1.287-0.612
		c-0.612,0-1.2,0.12-1.764,0.36l-0.27,0.107V25.994z"/>
	<path fill="#FFFFFF" d="M72.975,17.966c0.618-0.779,1.647-1.17,3.087-1.17s2.469,0.391,3.087,1.17
		c0.618,0.78,0.927,1.95,0.927,3.511c0,1.56-0.3,2.735-0.9,3.527s-1.638,1.188-3.114,1.188s-2.514-0.396-3.114-1.188
		s-0.9-1.968-0.9-3.527C72.048,19.916,72.357,18.746,72.975,17.966z M74.442,23.816c0.276,0.479,0.816,0.72,1.62,0.72
		c0.804,0,1.344-0.24,1.62-0.72c0.276-0.48,0.414-1.267,0.414-2.358s-0.147-1.865-0.441-2.322c-0.294-0.455-0.825-0.684-1.593-0.684
		c-0.768,0-1.299,0.229-1.593,0.684c-0.294,0.457-0.441,1.23-0.441,2.322S74.166,23.336,74.442,23.816z"/>
	<path fill="#FFFFFF" d="M88.446,18.848c-1.416-0.191-2.442-0.287-3.078-0.287c-0.636,0-1.077,0.074-1.323,0.225
		c-0.246,0.15-0.369,0.387-0.369,0.711s0.135,0.552,0.405,0.684c0.27,0.133,0.906,0.285,1.908,0.459
		c1.002,0.175,1.713,0.447,2.133,0.819s0.63,1.032,0.63,1.98s-0.303,1.644-0.909,2.088s-1.491,0.666-2.655,0.666
		c-0.732,0-1.656-0.103-2.772-0.307l-0.558-0.09l0.072-1.638c1.44,0.192,2.478,0.288,3.114,0.288c0.636,0,1.089-0.078,1.359-0.234
		c0.27-0.155,0.405-0.414,0.405-0.773c0-0.36-0.129-0.609-0.387-0.747c-0.258-0.138-0.876-0.288-1.854-0.45
		c-0.979-0.162-1.695-0.417-2.151-0.765c-0.456-0.349-0.684-0.984-0.684-1.908s0.315-1.614,0.945-2.07s1.437-0.684,2.421-0.684
		c0.768,0,1.71,0.096,2.826,0.288l0.558,0.107L88.446,18.848z"/>
	<path fill="#FFFFFF" d="M101.37,24.374l0.504-0.054l0.036,1.458c-1.368,0.275-2.581,0.414-3.636,0.414
		c-1.332,0-2.289-0.366-2.871-1.099c-0.582-0.731-0.873-1.901-0.873-3.51c0-3.191,1.302-4.788,3.906-4.788
		c2.52,0,3.78,1.374,3.78,4.122l-0.126,1.404h-5.58c0.012,0.744,0.174,1.29,0.486,1.638c0.312,0.349,0.894,0.522,1.746,0.522
		S100.47,24.446,101.37,24.374z M100.29,20.811c0-0.889-0.141-1.51-0.423-1.863c-0.282-0.354-0.759-0.531-1.431-0.531
		c-0.672,0-1.161,0.187-1.467,0.559c-0.306,0.372-0.465,0.983-0.477,1.836H100.29z"/>
	<path fill="#FFFFFF" d="M106.248,25.994h-1.962v-9h1.944v0.558c0.876-0.504,1.704-0.756,2.484-0.756c1.2,0,2.019,0.34,2.457,1.018
		c0.438,0.678,0.657,1.797,0.657,3.356v4.824h-1.944v-4.77c0-0.973-0.105-1.662-0.315-2.07c-0.21-0.408-0.639-0.612-1.287-0.612
		c-0.612,0-1.2,0.12-1.764,0.36l-0.27,0.107V25.994z"/>
	<path fill="#FFFFFF" d="M117.479,15.446v-1.782h9v1.782h-3.474v10.548h-2.016V15.446H117.479z"/>
	<path fill="#FFFFFF" d="M126.335,16.994h1.926l1.422,7.326h0.36l1.71-7.146h2.016l1.71,7.146h0.36l1.404-7.326h1.944l-1.908,9
		h-3.114l-1.404-6.174l-1.404,6.174h-3.114L126.335,16.994z"/>
	<path fill="#FFFFFF" d="M141.041,15.464v-2.069h1.962v2.069H141.041z M141.041,25.994v-9h1.962v9H141.041z"/>
	<path fill="#FFFFFF" d="M150.401,18.668h-2.484v3.96c0,0.732,0.054,1.219,0.162,1.458c0.108,0.24,0.384,0.36,0.828,0.36
		l1.476-0.054l0.09,1.565c-0.804,0.156-1.416,0.234-1.836,0.234c-1.02,0-1.719-0.234-2.097-0.702s-0.567-1.35-0.567-2.646v-4.176
		h-1.152v-1.674h1.152v-2.61h1.944v2.61h2.484V18.668z"/>
	<path fill="#FFFFFF" d="M155.549,16.796c0.636,0,1.386,0.084,2.25,0.252l0.45,0.09l-0.072,1.549
		c-0.948-0.097-1.65-0.145-2.106-0.145c-0.912,0-1.524,0.204-1.836,0.612c-0.312,0.408-0.468,1.176-0.468,2.304
		s0.15,1.908,0.45,2.34c0.3,0.433,0.924,0.648,1.872,0.648l2.106-0.145l0.054,1.566c-1.212,0.216-2.124,0.324-2.736,0.324
		c-1.368,0-2.331-0.369-2.889-1.107s-0.837-1.946-0.837-3.627c0-1.68,0.294-2.877,0.882-3.591S154.217,16.796,155.549,16.796z"/>
	<path fill="#FFFFFF" d="M162.28,25.994h-1.962V13.25h1.962v4.212c0.888-0.443,1.71-0.666,2.466-0.666c1.2,0,2.019,0.34,2.457,1.018
		c0.438,0.678,0.657,1.797,0.657,3.356v4.824h-1.962v-4.77c0-0.973-0.102-1.662-0.306-2.07s-0.636-0.612-1.296-0.612
		c-0.576,0-1.152,0.097-1.728,0.288l-0.288,0.108V25.994z"/>
	<path fill="#FFFFFF" d="M170.47,25.994v-2.52h2.106v2.52H170.47z M170.668,21.656l-0.18-7.992h2.088l-0.18,7.992H170.668z"/>
</g>
</svg>
